<?xml version="1.0" standalone="no"?>
<!DOCTYPE svg PUBLIC "-//W3C//DTD SVG 20010904//EN"
 "http://www.w3.org/TR/2001/REC-SVG-20010904/DTD/svg10.dtd">
<svg version="1.0" xmlns="http://www.w3.org/2000/svg"
 width="500.000000pt" height="500.000000pt" viewBox="0 0 500.000000 500.000000"
 preserveAspectRatio="xMidYMid meet">
<metadata>
Created by potrace 1.14, written by Peter Selinger 2001-2017
</metadata>
<g transform="translate(0.000000,500.000000) scale(0.100000,-0.100000)"
fill="#000000" stroke="none">
<path d="M2110 4995 c-8 -2 -49 -8 -90 -15 -106 -16 -103 -16 -230 -50 -155
-40 -289 -91 -445 -166 -158 -77 -185 -92 -304 -173 -465 -313 -801 -754 -984
-1294 l-52 -152 0 -640 0 -640 42 -120 c125 -358 258 -598 477 -860 105 -126
394 -395 424 -395 6 0 12 -4 14 -9 2 -4 37 -31 78 -58 318 -211 645 -336 1045
-399 154 -25 526 -25 680 0 61 9 122 19 137 21 42 6 153 34 248 62 278 82 601
249 815 421 39 31 79 64 90 72 64 49 283 283 357 381 232 309 409 692 464
1009 2 14 9 48 14 75 28 146 35 234 35 435 0 186 -7 292 -31 432 -3 21 -6 40
-5 43 0 2 -5 19 -10 37 -5 18 -12 47 -15 63 -2 17 -7 38 -10 47 -3 9 -7 25 -9
36 -8 43 -86 266 -122 349 -148 346 -412 699 -693 926 -41 34 -77 64 -80 68
-3 3 -54 39 -115 80 -303 204 -635 338 -990 399 -80 14 -163 18 -410 18 -170
0 -317 -1 -325 -3z"/>
</g>
</svg>
